<?xml version="1.0" standalone="no"?>
<!DOCTYPE svg PUBLIC "-//W3C//DTD SVG 20010904//EN"
 "http://www.w3.org/TR/2001/REC-SVG-20010904/DTD/svg10.dtd">
<svg version="1.0" xmlns="http://www.w3.org/2000/svg"
 width="452.000000pt" height="452.000000pt" viewBox="0 0 452.000000 452.000000"
 preserveAspectRatio="xMidYMid meet">
<metadata>
Created by potrace 1.14, written by Peter Selinger 2001-2017
</metadata>
<g transform="translate(0.000000,452.000000) scale(0.100000,-0.100000)"
fill="#000000" stroke="none">
<path d="M2218 4473 c-103 -141 -247 -381 -316 -524 -117 -243 -177 -456 -197
-699 -3 -41 -7 -75 -8 -75 -20 -2 -233 -118 -291 -158 -428 -295 -676 -768
-685 -1312 -1 -30 -4 -32 -63 -44 -33 -7 -83 -23 -111 -36 l-49 -24 -37 29
c-78 63 -183 88 -253 61 -156 -59 -169 -301 -22 -443 38 -37 41 -43 34 -75 -5
-19 -8 -77 -8 -127 0 -267 157 -504 424 -639 51 -26 254 -100 254 -92 0 2 14
0 32 -5 17 -5 47 -12 67 -15 20 -3 47 -7 60 -10 95 -18 380 -27 476 -14 47 6
56 4 140 -43 176 -97 316 -156 470 -200 67 -19 103 -22 220 -22 126 1 146 3
202 26 81 34 143 78 193 137 29 34 53 52 83 61 70 20 242 106 331 163 158 103
297 235 408 388 60 83 66 87 123 104 86 26 257 114 346 178 103 74 109 79 213
182 92 91 107 109 160 179 l29 39 -18 51 c-105 299 -264 574 -430 741 -23 24
-100 85 -112 90 -1 1 11 52 28 115 38 143 66 279 94 445 27 163 37 226 40 259
4 36 11 88 20 146 2 14 7 61 11 105 3 44 8 87 9 96 2 8 6 58 10 110 4 52 8
110 10 129 8 82 18 345 19 465 l1 130 -29 -2 c-16 -1 -32 -6 -35 -10 -3 -4
-17 -14 -30 -21 -13 -8 -40 -23 -60 -34 -446 -250 -789 -474 -990 -646 l-35
-29 -69 121 c-149 261 -324 490 -553 724 l-72 73 -34 -48z"/>
</g>
</svg>
